<?xml version="1.0" encoding="UTF-8"?>
<svg version="1.1" xmlns="http://www.w3.org/2000/svg" width="512" height="512">
<path d="M0 0 C15.65389452 5.78631791 32.9183659 4.38531555 48.10546875 -2.3671875 C55.77730725 -5.62496581 63.74702192 -3.26844181 71.37109375 -0.75390625 C82.57095409 4.13519687 90.05589028 11.86385417 95.16744995 22.97755432 C98.02565057 30.34982239 97.80757635 37.73085549 97.76953125 45.53515625 C97.77155642 47.00768172 97.77447154 48.4802062 97.77822876 49.95272827 C97.78262854 53.02392215 97.77629561 56.09485259 97.76220703 59.16601562 C97.74508591 63.08766875 97.75498927 67.00870709 97.77292442 70.93033791 C97.78380033 73.96567359 97.78029909 77.0008651 97.77254105 80.03620529 C97.77055111 81.48178558 97.77295557 82.92737929 97.77997971 84.37294388 C97.82267426 95.62257987 96.85235361 102.12201723 89.140625 110.515625 C84.46658838 115.086482 79.92227947 116.35768274 73.55355835 116.3999939 C72.58646942 116.40859436 71.61938049 116.41719482 70.62298584 116.42605591 C69.56839172 116.43031586 68.51379761 116.43457581 67.42724609 116.43896484 C66.31131073 116.44714233 65.19537537 116.45531982 64.04562378 116.46374512 C60.3494317 116.4885737 56.65327799 116.50510981 52.95703125 116.51953125 C51.69340382 116.52485493 50.42977638 116.5301786 49.12785721 116.5356636 C43.81428507 116.55688802 38.50072631 116.57601689 33.18712425 116.587286 C25.59406495 116.60349973 18.00151934 116.6366231 10.40865362 116.69368684 C4.41148918 116.73720731 -1.58544319 116.75304624 -7.58277512 116.75941849 C-10.12560047 116.76612349 -12.66841859 116.78132578 -15.21113968 116.8053093 C-18.77738374 116.83702465 -22.34234259 116.83698699 -25.90869141 116.82958984 C-26.95114014 116.84599518 -27.99358887 116.86240051 -29.06762695 116.87930298 C-36.94912715 116.81267535 -43.58472314 114.88762772 -49.54601479 109.51985741 C-57.09778647 101.6408991 -57.08593654 92.48699161 -57.0625 82.140625 C-57.06707263 80.77072392 -57.07238138 79.40082512 -57.0783844 78.03092957 C-57.08728329 75.16725317 -57.08493245 72.30385606 -57.07495117 69.44018555 C-57.06350962 65.80703599 -57.08361389 62.17486546 -57.11286831 58.54184437 C-57.13140669 55.712988 -57.13090255 52.88435817 -57.12523079 50.05545616 C-57.1250069 48.07663697 -57.1417549 46.09783853 -57.15904236 44.11909485 C-57.0656098 31.82366049 -54.47409781 20.91486495 -46.62890625 11.24609375 C-46.12746094 10.62089844 -45.62601562 9.99570312 -45.109375 9.3515625 C-32.9247094 -4.25612974 -16.0616869 -5.99976241 0 0 Z M-27.796875 18.6640625 C-33.90320247 23.48725924 -37.93845937 29.60808796 -39.09552002 37.38052368 C-39.28648774 40.91433131 -39.32224883 44.4142998 -39.29296875 47.953125 C-39.29775238 49.23668381 -39.30253601 50.52024261 -39.3074646 51.84269714 C-39.31478063 54.53989252 -39.30429606 57.23625236 -39.28076172 59.93334961 C-39.25212987 63.38144218 -39.26879752 66.82760077 -39.29862404 70.27562428 C-39.3210608 73.58494543 -39.30534843 76.89374899 -39.29296875 80.203125 C-39.3030899 81.43650101 -39.31321106 82.66987701 -39.32363892 83.94062805 C-39.30787811 85.08919785 -39.29211731 86.23776764 -39.27587891 87.42114258 C-39.27190094 88.42800613 -39.26792297 89.43486969 -39.26382446 90.47224426 C-38.33785647 94.51764065 -37.0339552 95.86924992 -33.62890625 98.24609375 C-30.12277941 98.96677754 -26.68813963 98.91914055 -23.11889648 98.87719727 C-22.06145233 98.88435257 -21.00400818 98.89150787 -19.91452026 98.89888 C-16.42173979 98.91577879 -12.93024051 98.8963574 -9.4375 98.875 C-7.01042067 98.87582852 -4.5833414 98.87828725 -2.15626526 98.88230896 C2.92879131 98.88516771 8.01340761 98.87045625 13.09838867 98.84301758 C19.62121648 98.80891728 26.14325782 98.81495872 32.66612339 98.83368015 C37.67696201 98.84424021 42.6876171 98.83532153 47.69843864 98.82029533 C50.10383497 98.81510702 52.50925041 98.81560315 54.91464424 98.82184029 C58.27367617 98.82728095 61.63157557 98.80695324 64.99047852 98.77954102 C65.98747269 98.78606689 66.98446686 98.79259277 68.01167297 98.79931641 C73.28938783 98.75127613 73.28938783 98.75127613 77.98654175 96.58119202 C79.726394 93.64686671 79.88431824 91.75911219 79.90454102 88.35107422 C79.92037735 87.16238739 79.93621368 85.97370056 79.95252991 84.74899292 C79.9450901 82.82556564 79.9450901 82.82556564 79.9375 80.86328125 C79.94274006 79.52531503 79.94901795 78.18735251 79.95628357 76.84939575 C79.96668916 74.04330085 79.96213088 71.23771282 79.94750977 68.43164062 C79.93041388 64.86062428 79.95369815 61.29123097 79.98899937 57.72039604 C80.01113275 54.95422997 80.00949245 52.18844173 80.00123405 49.42221451 C80.00002964 47.47372473 80.0198384 45.52525778 80.04017639 43.57687378 C79.95031683 34.91865812 78.54445789 27.97986991 72.69264221 21.34225464 C68.70430035 17.45006545 63.9329104 14.89281662 58.37109375 14.24609375 C55.91283007 14.64545067 53.74613415 15.37502781 51.3984375 16.20703125 C30.34097001 23.43449751 8.10195682 23.58276936 -12.69140625 15.30859375 C-18.42303728 13.28237262 -22.93050757 15.48119515 -27.796875 18.6640625 Z " fill="#000000" transform="translate(414.62890625,395.75390625)"/>
<path d="M0 0 C14.86229464 5.76071931 32.49441022 4.58476388 47.10424805 -1.546875 C47.71308838 -1.81757813 48.32192871 -2.08828125 48.94921875 -2.3671875 C56.58025752 -5.60764057 64.64610462 -3.34527042 72.21484375 -0.75390625 C84.04648289 4.71865306 91.47714794 13.17553117 96.21484375 25.24609375 C98.5757318 32.63724582 98.53765667 39.77585745 98.55078125 47.4921875 C98.55722198 48.87166985 98.56395125 50.25115088 98.57095337 51.63063049 C98.58287293 54.5110287 98.58663955 57.39130742 98.58544922 60.27172852 C98.58524594 63.9410942 98.61258001 67.60968621 98.64699364 71.27886868 C98.6693547 74.12469422 98.67328403 76.97033595 98.67222977 79.81624031 C98.67569892 81.81964495 98.6972944 83.82299223 98.71932983 85.82627869 C98.67384065 94.95482574 97.04835894 100.91248228 92.08984375 108.49609375 C84.8523412 115.41892228 77.28750026 116.98588184 67.54223633 116.86132812 C66.42060593 116.86687714 65.29897552 116.87242615 64.14335632 116.87814331 C60.46491723 116.88987883 56.78772646 116.86572874 53.109375 116.83984375 C50.53968868 116.83813131 47.97000061 116.83819969 45.40031433 116.83996582 C40.02816632 116.83831615 34.65646681 116.82026762 29.28442383 116.78808594 C23.08808221 116.75114494 16.8922027 116.74242012 10.69576532 116.74938345 C4.71134205 116.75570279 -1.2728835 116.74469539 -7.25728798 116.72541809 C-9.79417464 116.71839714 -12.33107518 116.71526246 -14.86797142 116.71611023 C-18.41248007 116.71430963 -21.95633674 116.69290574 -25.50073242 116.66601562 C-26.54454071 116.66894623 -27.588349 116.67187683 -28.66378784 116.67489624 C-38.68865201 116.55774363 -44.76939503 113.4202243 -51.78515625 106.24609375 C-55.43802546 101.17921066 -55.90933224 96.97756068 -55.9621582 90.81616211 C-55.97499344 89.51057846 -55.98782867 88.20499481 -56.00105286 86.85984802 C-56.00922432 85.43521508 -56.01666727 84.01057779 -56.0234375 82.5859375 C-56.02751303 81.86415377 -56.03158855 81.14237003 -56.03578758 80.39871407 C-56.05662494 76.5735109 -56.07093312 72.74834328 -56.08032227 68.9230957 C-56.09134361 64.99828402 -56.12569975 61.07404603 -56.16549397 57.149436 C-56.19181973 54.10967558 -56.20002841 51.07004814 -56.20360374 48.03018379 C-56.20843367 46.58508012 -56.2199433 45.13998092 -56.23864174 43.69499016 C-56.41146999 29.44618418 -53.23766984 19.10605881 -43.78515625 8.24609375 C-31.55272062 -3.8079522 -15.32111605 -6.19513627 0 0 Z M-27.7265625 18.44140625 C-33.60282546 22.88350568 -37.20346771 29.18815391 -38.24685669 36.46697998 C-38.42665797 40.12927706 -38.45233485 43.75928183 -38.4140625 47.42578125 C-38.41489312 48.76954337 -38.41735976 50.11330537 -38.42137146 51.45706177 C-38.42420952 54.25261554 -38.4097155 57.04735914 -38.38208008 59.84277344 C-38.34779911 63.42078543 -38.35409896 66.99736987 -38.37274265 70.5754528 C-38.38331362 73.3413786 -38.37437771 76.10697265 -38.35935783 78.87286758 C-38.35168672 80.83156249 -38.35901619 82.79029764 -38.36659241 84.74899292 C-38.35075607 85.93767975 -38.33491974 87.12636658 -38.31860352 88.35107422 C-38.31240494 89.39568817 -38.30620636 90.44030212 -38.29981995 91.51657104 C-37.93742755 94.2925099 -37.93742755 94.2925099 -36.40060425 96.58119202 C-32.26445629 99.21411758 -28.21003529 98.81099564 -23.40454102 98.77954102 C-22.34884918 98.78815659 -21.29315735 98.79677216 -20.20547485 98.8056488 C-16.71225537 98.82837022 -13.21983413 98.82155798 -9.7265625 98.8125 C-7.30044821 98.817733 -4.87433596 98.82400828 -2.44822693 98.83128357 C2.63853523 98.84169937 7.72501786 98.83710937 12.81176758 98.82250977 C19.33348153 98.80532488 25.85431425 98.82880859 32.37592983 98.86399937 C37.38680369 98.88595063 42.39746598 98.88453721 47.40837288 98.87623405 C49.81295805 98.87541321 52.21755856 98.88230181 54.62209892 98.89700508 C57.98356289 98.91440698 61.34343437 98.89994252 64.70483398 98.87719727 C65.69980392 98.88888947 66.69477386 98.90058167 67.71989441 98.91262817 C72.25121494 98.85018324 74.53851864 98.71819244 78.33128357 96.07070923 C80.47057373 92.86259718 80.84671082 91.2445197 80.86181641 87.42114258 C80.87757721 86.27257278 80.89333801 85.12400299 80.90957642 83.94062805 C80.89439468 82.09056404 80.89439468 82.09056404 80.87890625 80.203125 C80.88368988 78.92434982 80.88847351 77.64557465 80.8934021 76.32804871 C80.90076223 73.62195589 80.89010696 70.91668975 80.86669922 68.21069336 C80.83835211 64.76854419 80.85452666 61.32835664 80.88456154 57.88628101 C80.9071643 54.57507967 80.89124681 51.26438179 80.87890625 47.953125 C80.8890274 46.72987015 80.89914856 45.5066153 80.90957642 44.24629211 C80.77731661 34.47558844 78.54326536 27.23430755 71.46484375 20.30859375 C67.41748927 17.11171526 63.40866396 14.79613374 58.21484375 14.24609375 C56.00285626 14.6519221 54.10953627 15.37536835 52.01953125 16.20703125 C30.77773236 24.07655563 8.75335554 22.78661025 -12.34765625 15.30859375 C-18.27381389 13.45539669 -22.60938504 15.29078995 -27.7265625 18.44140625 Z " fill="#000000" transform="translate(55.78515625,395.75390625)"/>
<path d="M0 0 C14.74672307 4.91004503 32.50960062 3.24908915 46.47265625 -3.09375 C54.39599561 -6.37193673 61.9508877 -4.67099145 69.72265625 -1.65625 C80.8351654 3.41464726 90.02926294 11.55288642 94.47265625 23.15625 C95.9829663 27.85533434 96.72991071 31.93576293 96.76318359 36.86669922 C96.7759433 38.15849091 96.788703 39.45028259 96.80184937 40.78121948 C96.80490738 42.17445728 96.80713495 43.56769711 96.80859375 44.9609375 C96.81503149 46.40910978 96.82176055 47.85728079 96.82876587 49.30545044 C96.84070098 52.3330588 96.84445054 55.36055339 96.84326172 58.38818359 C96.84305861 62.24701242 96.87036824 66.10510412 96.90480614 69.96375847 C96.92716055 72.95284303 96.93109669 75.94175246 96.93004227 78.93091202 C96.9323851 80.35253567 96.94113353 81.77416513 96.956707 83.19570541 C97.05299076 92.89074455 96.49375217 100.39442588 90.09765625 107.96875 C81.49242665 115.13977467 74.61563207 116.45675965 63.75488281 116.44677734 C62.69863708 116.45349457 61.64239136 116.46021179 60.55413818 116.46713257 C57.07380423 116.48607832 53.59366352 116.4900352 50.11328125 116.4921875 C47.68340985 116.49861823 45.25353922 116.50534679 42.82366943 116.51235962 C37.73301398 116.52432415 32.64242633 116.52804132 27.55175781 116.52685547 C21.04768258 116.52665243 14.54404502 116.55394315 8.04007339 116.58839989 C3.02128119 116.61070354 -1.9974063 116.61469192 -7.01624298 116.61363602 C-9.41308346 116.61598718 -11.80992704 116.6247832 -14.20671844 116.64030075 C-17.56878263 116.66002838 -20.929911 116.65409523 -24.29199219 116.64208984 C-25.27002808 116.65332886 -26.24806396 116.66456787 -27.2557373 116.67614746 C-35.36413497 116.60305061 -43.11137254 114.9907793 -49.46484375 109.71875 C-50.14546875 108.873125 -50.82609375 108.0275 -51.52734375 107.15625 C-52.24921875 106.351875 -52.97109375 105.5475 -53.71484375 104.71875 C-57.09036318 99.94646391 -57.7789052 95.34620372 -57.81787109 89.59106445 C-57.8306308 88.30565262 -57.8433905 87.02024078 -57.85653687 85.69587708 C-57.85959577 84.30376335 -57.86182286 82.91164758 -57.86328125 81.51953125 C-57.86971835 80.07472098 -57.87644737 78.62991199 -57.88345337 77.18510437 C-57.89540251 74.15991195 -57.89913686 71.13483348 -57.89794922 68.10961914 C-57.89774666 64.26104517 -57.92499331 60.41321483 -57.95949364 56.56481647 C-57.98190038 53.57993822 -57.98578252 50.59523468 -57.98472977 47.61028099 C-57.98706721 46.19310137 -57.99578421 44.77591553 -58.0113945 43.35881996 C-58.15009143 29.46244708 -55.09511776 18.33003716 -45.52734375 7.99609375 C-31.74006573 -5.17568078 -17.07466625 -6.39138758 0 0 Z M-34.984375 23.86328125 C-40.0280257 31.35852925 -39.98151892 37.96421768 -39.9609375 46.82421875 C-39.96617935 48.13659012 -39.9714212 49.44896149 -39.9768219 50.80110168 C-39.98571866 53.567288 -39.98336666 56.33318501 -39.97338867 59.09936523 C-39.96185837 62.64039195 -39.982188 66.18042739 -40.01130581 69.72132397 C-40.03406492 73.10984193 -40.0272032 76.49812615 -40.0234375 79.88671875 C-40.03467148 81.15654099 -40.04590546 82.42636322 -40.05747986 83.73466492 C-40.04809891 84.91301407 -40.03871796 86.09136322 -40.02905273 87.30541992 C-40.02888657 88.3413176 -40.0287204 89.37721527 -40.02854919 90.44450378 C-39.3991391 93.84989467 -38.18081751 95.00570418 -35.52734375 97.15625 C-33.20714249 98.31635063 -31.87252938 98.28437487 -29.2895813 98.28996277 C-27.95627777 98.29636024 -27.95627777 98.29636024 -26.59603882 98.30288696 C-25.61833527 98.30243378 -24.64063171 98.30198059 -23.63330078 98.30151367 C-22.09168274 98.30655159 -22.09168274 98.30655159 -20.5189209 98.31169128 C-17.10765386 98.32122183 -13.69643579 98.32314548 -10.28515625 98.32421875 C-7.92105082 98.32742998 -5.55694558 98.33079395 -3.19284058 98.33430481 C1.76874248 98.34030143 6.7303081 98.34214417 11.69189453 98.34155273 C18.05654357 98.34145111 24.42108106 98.3551015 30.78570366 98.37232494 C35.67038488 98.38343179 40.55503904 98.38547234 45.4397316 98.38494301 C47.78652455 98.38612518 50.13331816 98.39056018 52.48009872 98.39827538 C55.76008715 98.40804818 59.03983206 98.4052078 62.31982422 98.39916992 C63.29347931 98.40478943 64.2671344 98.41040894 65.27029419 98.41619873 C66.61205719 98.409907 66.61205719 98.409907 67.98092651 98.40348816 C68.75632215 98.40403293 69.5317178 98.40457769 70.33061028 98.40513897 C72.81303765 98.11670035 74.36629779 97.49485908 76.47265625 96.15625 C78.74698019 92.74476409 78.73757342 91.4783855 78.77905273 87.46655273 C78.79504013 86.29781113 78.81102753 85.12906952 78.82749939 83.9249115 C78.83554344 82.02655296 78.83554344 82.02655296 78.84375 80.08984375 C78.85277847 78.78604263 78.86180695 77.48224152 78.87110901 76.13893127 C78.88760456 73.37408987 78.89529893 70.60936952 78.89819336 67.84448242 C78.903549 64.32622917 78.94110599 60.80913963 78.98693752 57.29121304 C79.0241288 53.9115988 79.02523728 50.53215525 79.03125 47.15234375 C79.05078232 45.90094101 79.07031464 44.64953827 79.09043884 43.36021423 C79.04452286 34.36391493 77.28600393 27.66293362 71.41015625 20.71875 C65.32829512 15.81402328 61.48381549 13.76306427 53.47265625 14.15625 C50.87323151 14.88928237 48.42926705 15.6577856 45.91015625 16.59375 C27.8584071 23.14967518 5.53406607 22.31970877 -12.23828125 15.046875 C-21.7180939 11.35848373 -29.04868576 17.02525445 -34.984375 23.86328125 Z " fill="#000000" transform="translate(236.52734375,114.84375)"/>
<path d="M0 0 C2.1185588 0.85697133 4.18364948 1.78836223 6.25137329 2.76159668 C7.00884354 3.1072467 7.76631378 3.45289673 8.54673767 3.809021 C10.13879374 4.53913719 11.72789308 5.27573182 13.31411743 6.01843262 C15.73562591 7.15033854 18.16712879 8.25808982 20.60098267 9.36315918 C22.15176219 10.07789786 23.70191505 10.79399814 25.25137329 11.51159668 C25.97435104 11.84093201 26.6973288 12.17026733 27.44221497 12.50958252 C34.74299736 15.95656406 34.74299736 15.95656406 37.05215454 19.40222168 C37.7565132 25.35533682 36.61870798 29.43619136 33.87637329 34.75378418 C33.55054764 35.41631195 33.22472198 36.07883972 32.88902283 36.76144409 C31.85387362 38.85769655 30.79735329 40.94227199 29.73965454 43.02722168 C29.04094091 44.43275278 28.34366228 45.8389982 27.64785767 47.24597168 C25.79989015 50.97358474 23.92814693 54.68863674 22.05215454 58.40222168 C21.52855347 59.4880957 21.00495239 60.57396973 20.46548462 61.69274902 C18.72348301 65.03231265 17.35562808 66.5669586 14.05215454 68.40222168 C10.46696111 68.62673477 7.26623187 68.10716981 4.11465454 66.27722168 C2.43532027 63.31369061 1.82391114 60.75980224 2.05215454 57.40222168 C3.13935108 53.62751592 4.52774377 50.02024381 6.05215454 46.40222168 C-5.88188642 54.04583953 -16.56840569 62.75421894 -26.94784546 72.40222168 C-27.94557983 73.31874512 -27.94557983 73.31874512 -28.96347046 74.25378418 C-60.20445241 104.09781165 -79.28785836 150.35680668 -81.17831421 193.14440918 C-81.21473022 193.95555176 -81.25114624 194.76669434 -81.28866577 195.60241699 C-81.35143631 197.17675287 -81.39980533 198.75175331 -81.4312439 200.32702637 C-81.58707233 204.83795604 -82.13517926 207.82488264 -84.94784546 211.40222168 C-88.43588641 213.72758231 -89.849253 213.73680066 -93.94784546 213.40222168 C-97.29049751 212.19515289 -97.89489112 211.48165319 -99.94784546 208.40222168 C-100.3893292 205.31732951 -100.27975978 202.20276551 -100.26034546 199.08972168 C-100.25543091 198.15837402 -100.25051636 197.22702637 -100.24545288 196.26745605 C-99.36430743 142.29616748 -74.62848763 92.48451754 -36.60409546 55.08581543 C-24.86548615 43.77333828 -11.9088674 34.74121533 2.05215454 26.40222168 C3.04215454 25.74222168 4.03215454 25.08222168 5.05215454 24.40222168 C4.30324951 24.04039795 4.30324951 24.04039795 3.53921509 23.67126465 C1.26307813 22.55846306 -0.9982696 21.41831734 -3.26034546 20.27722168 C-4.04602905 19.8982373 -4.83171265 19.51925293 -5.64120483 19.12878418 C-9.4383852 17.18979846 -11.59577616 15.92304599 -14.02597046 12.32800293 C-15.28431339 8.33436372 -14.59650448 6.2013055 -12.94784546 2.40222168 C-9.51021448 -1.54468796 -4.85248459 -1.48918903 0 0 Z " fill="#000000" transform="translate(150.94784545898438,51.5977783203125)"/>
<path d="M0 0 C1.94838701 1.01536128 3.88963833 2.04451103 5.82421875 3.0859375 C6.84314209 3.62790771 7.86206543 4.16987793 8.91186523 4.72827148 C26.22514101 14.04462756 41.31526298 25.92767383 55.51171875 39.4609375 C56.24003906 40.14800781 56.96835937 40.83507812 57.71875 41.54296875 C91.56285858 74.31901868 107.46352318 118.15968407 115.51171875 163.4609375 C116.58099609 162.30464844 116.58099609 162.30464844 117.671875 161.125 C118.63862864 160.11131658 119.60611599 159.09833254 120.57421875 158.0859375 C121.04021484 157.57804688 121.50621094 157.07015625 121.98632812 156.546875 C125.48894815 152.92511823 128.40918887 151.34521668 133.51171875 150.4609375 C136.78627685 151.57305157 138.7497088 152.53327321 140.94921875 155.2109375 C141.8377128 158.7649137 141.51742074 160.91140107 140.51171875 164.4609375 C135.6107232 171.18364153 129.18724657 176.9686018 123.32421875 182.8359375 C122.43541016 183.73699219 121.54660156 184.63804687 120.63085938 185.56640625 C119.77298828 186.42621094 118.91511719 187.28601563 118.03125 188.171875 C117.25885986 188.94837402 116.48646973 189.72487305 115.69067383 190.52490234 C112.80839262 193.0858536 110.5222037 194.2542474 106.76171875 195.0234375 C98.42310675 193.58021619 91.42790622 183.53276016 85.5637207 177.64331055 C84.05599779 176.13015084 82.54290116 174.62250865 81.02929688 173.11523438 C80.06608483 172.15136276 79.10318235 171.18718166 78.140625 170.22265625 C77.2751001 169.35600342 76.4095752 168.48935059 75.51782227 167.59643555 C72.9486018 164.86149926 72.56423372 163.92481973 72.13671875 160.1484375 C72.51171875 156.4609375 72.51171875 156.4609375 74.76171875 153.5859375 C78.8058364 150.4609375 78.8058364 150.4609375 81.51171875 150.4609375 C87.3269352 152.29165379 90.43122414 154.98234586 94.51171875 159.4609375 C91.47907834 116.91189918 66.7430994 74.7049687 35.51171875 46.4609375 C30.97211728 42.62954642 26.26845544 39.01705555 21.51171875 35.4609375 C20.64546875 34.81125 19.77921875 34.1615625 18.88671875 33.4921875 C10.70354922 27.57015692 1.85984285 22.70374674 -7.09375 18.05859375 C-7.86581787 17.65688965 -8.63788574 17.25518555 -9.43334961 16.84130859 C-10.94454029 16.0592222 -12.45958301 15.28452476 -13.97875977 14.51806641 C-17.38291997 12.76244174 -19.32562235 11.70492586 -21.48828125 8.4609375 C-21.95190607 4.28831413 -21.93769065 2.17379379 -19.67578125 -1.4140625 C-13.868462 -7.05545834 -6.32751091 -3.11123811 0 0 Z " fill="#000000" transform="translate(345.48828125,70.5390625)"/>
<path d="M0 0 C11.29696817 7.8315204 18.86800172 19.75797734 21.56640625 33.25 C23.75838162 48.21444722 20.38656155 62.74551206 11.4375 75.0625 C2.40700425 85.86260805 -9.75062713 92.89539295 -23.74609375 94.5625 C-39.10354414 95.76493774 -52.66084907 91.70852385 -64.49609375 81.8125 C-75.93060159 71.05301678 -80.79622896 58.15085042 -82.05859375 42.75 C-81.5606265 29.19422491 -76.56252491 15.15583045 -66.74609375 5.5625 C-46.96502378 -11.00456028 -22.10211924 -13.7624025 0 0 Z M-46.74609375 13.5625 C-47.3803125 13.90152344 -48.01453125 14.24054687 -48.66796875 14.58984375 C-54.961301 18.50229146 -59.13154947 24.96646956 -62.12109375 31.625 C-64.41793639 42.42016041 -63.82870632 52.04522608 -57.74609375 61.5625 C-52.39682584 69.47402228 -44.99316195 74.24280684 -35.62109375 76.22265625 C-24.75978185 77.42792938 -16.5146433 75.09535976 -7.74609375 68.5625 C-0.45190405 62.07568245 3.59874633 53.59077085 4.28515625 43.84375 C4.15733195 34.51257614 0.93027857 26.69841886 -5.24609375 19.75 C-6.07109375 19.028125 -6.89609375 18.30625 -7.74609375 17.5625 C-8.46796875 16.881875 -9.18984375 16.20125 -9.93359375 15.5 C-21.21176204 7.73059518 -34.68208058 6.98804678 -46.74609375 13.5625 Z " fill="#000000" transform="translate(285.74609375,8.4375)"/>
<path d="M0 0 C10.26086584 8.7884546 17.58487921 20.34685274 19.30078125 33.92578125 C20.40755682 49.01287981 16.74308467 63.51105157 6.92578125 75.30078125 C-1.58999357 84.26085736 -13.61654791 91.8372567 -26.26171875 92.1640625 C-43.65368323 92.52178322 -56.80777085 89.39412055 -69.94921875 77.23828125 C-79.6834422 66.90441365 -84.29841878 54.52643103 -84.13671875 40.48828125 C-84.12987061 39.56885742 -84.12302246 38.64943359 -84.1159668 37.70214844 C-83.95276023 30.79979434 -82.94064804 25.09188779 -79.69921875 18.92578125 C-79.31378906 18.13171875 -78.92835938 17.33765625 -78.53125 16.51953125 C-71.74090768 3.33440052 -60.2462232 -5.3378999 -46.1640625 -9.89453125 C-29.64337186 -13.7090647 -13.40262363 -10.29926649 0 0 Z M-57.44921875 17.77734375 C-59.02739191 19.75795107 -60.3819773 21.76374361 -61.69921875 23.92578125 C-62.11300781 24.580625 -62.52679688 25.23546875 -62.953125 25.91015625 C-67.15613542 33.70110239 -66.95410675 42.80366628 -64.88671875 51.2421875 C-61.3601206 60.83012621 -55.28150644 67.55192998 -46.07421875 71.98828125 C-37.77941254 75.03924446 -28.14735065 75.70415444 -19.82421875 72.36328125 C-17.72339385 71.261345 -17.72339385 71.261345 -15.69921875 69.92578125 C-14.54486328 69.19681641 -14.54486328 69.19681641 -13.3671875 68.453125 C-6.25105555 63.46121154 -1.58024335 56.97068639 0.73828125 48.55078125 C2.50124039 37.99158387 0.26173358 28.77348408 -5.69921875 19.92578125 C-12.24933621 12.40482086 -19.70199754 8.21116284 -29.57421875 6.98828125 C-40.29428363 6.44342408 -50.01338669 9.90996786 -57.44921875 17.77734375 Z " fill="#000000" transform="translate(467.69921875,292.07421875)"/>
<path d="M0 0 C9.23976144 7.69394584 17.10335149 19.21566509 18.6796875 31.3359375 C19.84607693 49.02374288 17.33491813 62.49107573 5.87109375 76.5546875 C-2.74733283 85.87190543 -14.76039137 92.1102597 -27.50390625 92.76953125 C-29.25505587 92.79267637 -31.0066261 92.79360874 -32.7578125 92.7734375 C-33.67723633 92.76658936 -34.59666016 92.75974121 -35.54394531 92.75268555 C-42.44629941 92.58947898 -48.15420596 91.57736679 -54.3203125 88.3359375 C-55.114375 87.95050781 -55.9084375 87.56507813 -56.7265625 87.16796875 C-69.91169323 80.37762643 -78.58399365 68.88294195 -83.140625 54.80078125 C-86.39971315 40.68571638 -84.40859722 26.48700247 -77.11328125 14.00390625 C-69.06405625 2.02651916 -58.07106983 -6.23503138 -44.0703125 -9.9140625 C-28.45450162 -12.92859295 -12.89078252 -9.24490464 0 0 Z M-58.1953125 19.1484375 C-64.29364259 26.75696726 -66.62004087 34.58227676 -66.3203125 44.3359375 C-65.00349417 53.71826809 -60.96688014 61.70495731 -53.5078125 67.6484375 C-52.13298573 68.57618714 -50.73670943 69.47298455 -49.3203125 70.3359375 C-48.66546875 70.74972656 -48.010625 71.16351563 -47.3359375 71.58984375 C-39.54499136 75.79285417 -30.44242747 75.5908255 -22.00390625 73.5234375 C-12.41596754 69.99683935 -5.69416377 63.91822519 -1.2578125 54.7109375 C1.79315071 46.41613129 2.45806069 36.7840694 -0.8828125 28.4609375 C-1.98474875 26.3601126 -1.98474875 26.3601126 -3.3203125 24.3359375 C-3.80628906 23.56636719 -4.29226562 22.79679687 -4.79296875 22.00390625 C-9.87630583 14.75744701 -16.42634801 10.07099617 -25.0703125 7.9609375 C-37.8436852 5.77249253 -49.29613778 9.62175687 -58.1953125 19.1484375 Z " fill="#000000" transform="translate(109.3203125,291.6640625)"/>
<path d="M0 0 C2.99028679 1.99352453 4.57809415 3.40255495 5.51171875 6.9375 C5.77422773 10.01760542 5.66989307 12.10393725 3.78515625 14.625 C0.69541888 17.39239835 -0.80519838 18 -5 18 C-5 18.66 -5 19.32 -5 20 C-3.73027344 20.13277344 -2.46054688 20.26554687 -1.15234375 20.40234375 C2.24514596 20.77792898 5.6183913 21.23017556 8.99609375 21.75390625 C42.80989006 26.88580106 76.41971158 23.74254445 108.41015625 11.3125 C112.87038575 9.68177409 115.3223571 9.454275 120 10 C123.34238038 12.14255152 123.89167954 13.60282498 124.9375 17.4375 C125.00950433 21.54174653 124.43782291 22.77180924 122 26 C106.34591469 35.82701255 84.07767753 39.5945772 66 42 C65.2980249 42.0935376 64.5960498 42.1870752 63.87280273 42.28344727 C55.9158561 43.2184362 47.93766758 43.20061705 39.9375 43.1875 C39.20056915 43.18656342 38.46363831 43.18562683 37.70437622 43.18466187 C18.50073863 43.13171905 0.72525764 40.13804784 -18 36 C-17.566875 36.78503906 -17.13375 37.57007813 -16.6875 38.37890625 C-10.77343776 49.53622275 -10.77343776 49.53622275 -12 55 C-13.99176104 57.92539902 -15.44924075 59.58729794 -18.9375 60.515625 C-22.74476987 60.83289749 -22.74476987 60.83289749 -25 60 C-30.00144116 55.07259334 -32.85180232 48.95850151 -36 42.75 C-36.50789062 41.76386719 -37.01578125 40.77773438 -37.5390625 39.76171875 C-38.5466401 37.80081772 -39.54821327 35.83681861 -40.54345703 33.86962891 C-41.51059479 31.96420866 -42.49067995 30.06530233 -43.48388672 28.17333984 C-43.94037598 27.29371582 -44.39686523 26.4140918 -44.8671875 25.5078125 C-45.27565918 24.73066895 -45.68413086 23.95352539 -46.10498047 23.15283203 C-47.53272939 19.71860126 -47.24053544 17.44593179 -46 14 C-41.91085263 9.91879272 -37.46033932 8.57878068 -32.0625 7 C-31.22291748 6.74653809 -30.38333496 6.49307617 -29.51831055 6.23193359 C-27.8177668 5.72081556 -26.11570146 5.21473112 -24.41210938 4.71386719 C-22.24175113 4.07154659 -20.08115733 3.40497838 -17.921875 2.7265625 C-5.8509349 -0.95742571 -5.8509349 -0.95742571 0 0 Z " fill="#000000" transform="translate(217,418)"/>
</svg>
