<?xml version="1.0" encoding="UTF-8"?>
<svg version="1.1" xmlns="http://www.w3.org/2000/svg" width="512" height="512">
<path d="M0 0 C0.78259186 -0.00335861 1.56518372 -0.00671722 2.37149048 -0.01017761 C4.95544019 -0.01966737 7.53932497 -0.02162965 10.12329102 -0.02270508 C11.92163622 -0.02591873 13.71998115 -0.02928289 15.51832581 -0.03279114 C19.28680019 -0.03877724 23.05525166 -0.04063154 26.82373047 -0.04003906 C31.65022203 -0.0399374 36.47656662 -0.05359608 41.30302334 -0.07081127 C45.01679661 -0.081934 48.73053436 -0.0839582 52.44432259 -0.08342934 C54.22369964 -0.08460879 56.00307763 -0.08902862 57.78243828 -0.0967617 C60.27173011 -0.10656827 62.76070294 -0.10368109 65.25 -0.09765625 C66.34972389 -0.10608551 66.34972389 -0.10608551 67.47166443 -0.11468506 C72.41522768 -0.08430925 76.28064857 0.37571139 79.98388672 3.80834961 C81.69684829 7.12814475 81.52697437 9.813987 81.48266602 13.53588867 C81.47842117 14.24050232 81.47417633 14.94511597 81.46980286 15.67108154 C81.45306265 17.91287079 81.41542131 20.15374798 81.37719727 22.39526367 C81.3621443 23.91868815 81.34845696 25.44212678 81.33618164 26.96557617 C81.30317518 30.69243308 81.2514258 34.4187593 81.18969727 38.14526367 C82.54140015 38.41790039 82.54140015 38.41790039 83.92041016 38.69604492 C90.97281339 40.15603418 97.84129105 41.72601056 104.62719727 44.14526367 C105.45574219 44.43941162 106.28428711 44.73355957 107.13793945 45.03662109 C133.48259301 54.70890046 155.74422608 69.28810952 177.18969727 87.14526367 C181.24536366 84.94002919 185.05705856 82.58983507 188.81860352 79.91088867 C189.62620117 79.33725586 190.43379883 78.76362305 191.26586914 78.17260742 C192.93342013 76.9805639 194.59484801 75.77991121 196.25024414 74.57104492 C199.64756935 72.17580844 202.31531337 70.33650195 206.40454102 69.44213867 C213.10957822 71.13485494 216.61447494 76.73018603 220.18969727 82.20776367 C221.15086183 83.6420784 222.11315531 85.07563709 223.07641602 86.50854492 C223.83317627 87.64090576 223.83317627 87.64090576 224.60522461 88.79614258 C227.35069452 92.86654496 230.179182 96.87843989 233.00219727 100.89526367 C234.18586227 102.58401582 235.36945523 104.27281845 236.55297852 105.96166992 C238.39531349 108.58823197 240.23822844 111.21438458 242.08178711 113.84008789 C243.34301346 115.63651741 244.60384096 117.43322703 245.86425781 119.23022461 C247.0405761 120.90730806 248.21775619 122.58378752 249.39599609 124.25952148 C251.00180793 126.54936559 252.59602376 128.84696163 254.18969727 131.14526367 C254.75172852 131.93884277 255.31375977 132.73242188 255.89282227 133.55004883 C256.43422852 134.33041504 256.97563477 135.11078125 257.53344727 135.91479492 C258.26337891 136.95470581 258.26337891 136.95470581 259.00805664 138.015625 C260.35106931 140.43610011 260.88440978 142.39878441 261.18969727 145.14526367 C259.30470939 150.50968405 256.09378286 153.36904729 251.81469727 156.83276367 C251.20126465 157.34315186 250.58783203 157.85354004 249.95581055 158.37939453 C248.67821046 159.4422073 247.39740579 160.50117894 246.11352539 161.55639648 C243.06759995 164.07199075 240.07009167 166.64403308 237.06469727 169.20776367 C235.11650447 170.86688694 233.15844995 172.51024542 231.18969727 174.14526367 C230.58899414 174.73436523 229.98829102 175.3234668 229.36938477 175.93041992 C225.8682216 177.88178506 222.37886968 177.58876081 218.43969727 177.52026367 C217.5927832 177.50938721 216.74586914 177.49851074 215.87329102 177.48730469 C186.87699626 176.767288 159.92611892 163.5197594 139.93969727 142.83276367 C128.39833663 130.93403631 114.99763474 121.53449081 100.18969727 114.14526367 C99.55773437 113.8286377 98.92577148 113.51201172 98.2746582 113.18579102 C63.12433611 95.93492818 22.02701837 93.74338567 -15.06030273 105.89526367 C-54.12978553 119.4277342 -85.05596908 147.01186794 -103.45092773 183.94604492 C-110.15580533 198.18427638 -114.67406738 213.56547823 -116.81030273 229.14526367 C-116.93920898 229.96768555 -117.06811523 230.79010742 -117.20092773 231.63745117 C-122.38165274 271.03822816 -109.72075332 310.96934957 -85.81030273 342.14526367 C-61.69107985 373.13550648 -26.68683576 393.06677831 12.17797852 398.72338867 C15.56443303 399.12061605 18.95559301 399.34525328 22.35766602 399.56713867 C23.48769043 399.64303223 24.61771484 399.71892578 25.78198242 399.79711914 C28.03720771 399.94213644 30.2934612 400.07221126 32.55053711 400.18481445 C46.8056181 401.07723542 59.50767676 405.86411981 69.50219727 416.33276367 C78.86421126 427.61716247 81.49483817 439.51215551 81.52563477 453.78588867 C81.53229156 454.87109802 81.53894836 455.95630737 81.54580688 457.07440186 C81.55587741 459.35353919 81.56062565 461.63270568 81.56030273 463.91186523 C81.56470199 467.39900618 81.60115331 470.88490642 81.63891602 474.37182617 C81.64478011 476.59317603 81.64875222 478.81453187 81.65063477 481.03588867 C81.67219131 482.59536224 81.67219131 482.59536224 81.69418335 484.18634033 C81.66593326 488.64708096 81.64274969 491.37467808 79.34838867 495.27709961 C75.38442419 498.70757419 71.28032668 498.29906038 66.30932617 498.30639648 C65.5073732 498.31136139 64.70542023 498.31632629 63.87916565 498.32144165 C61.22485498 498.33605268 58.57060406 498.34286326 55.91625977 498.34838867 C54.07164508 498.3541407 52.22703042 498.35989842 50.38241577 498.36566162 C46.51381146 498.37616838 42.64522791 498.38201328 38.77661133 498.38549805 C33.82111606 498.39098417 28.86589536 498.41501608 23.91048622 498.44347 C20.09977416 498.46209882 16.28912823 498.4673021 12.47837448 498.46883392 C10.65153883 498.47186008 8.82470432 498.47988739 6.99791336 498.4930191 C4.44134908 498.51008588 1.88545565 498.50819802 -0.67114258 498.50170898 C-1.42456436 498.51092377 -2.17798615 498.52013855 -2.95423889 498.52963257 C-7.42031496 498.49414703 -10.27641373 497.92592019 -13.81030273 495.14526367 C-16.20659729 491.55082184 -16.06811604 488.99664715 -16.00561523 484.85229492 C-16.00278534 484.14626633 -15.99995544 483.44023773 -15.99703979 482.71281433 C-15.98585737 480.46095735 -15.96075694 478.20950016 -15.93530273 475.95776367 C-15.9252704 474.42977463 -15.91614499 472.90177935 -15.90795898 471.3737793 C-15.88592446 467.63078704 -15.85140841 463.88809311 -15.81030273 460.14526367 C-16.69842651 459.98852173 -16.69842651 459.98852173 -17.60449219 459.82861328 C-53.44965783 453.12881072 -84.21467878 434.1235096 -111.81030273 411.14526367 C-118.52248775 415.32860944 -125.09778155 419.66668251 -131.56884766 424.21142578 C-135.9606453 427.28885535 -138.33203838 428.7773711 -143.81030273 428.14526367 C-149.10543066 424.42258395 -152.291887 419.95248521 -155.81030273 414.58276367 C-156.95373051 412.87499308 -158.09829995 411.16798644 -159.24389648 409.46166992 C-159.83025879 408.58397949 -160.41662109 407.70628906 -161.02075195 406.80200195 C-163.91656117 402.50293021 -166.89292266 398.26130696 -169.87280273 394.02026367 C-170.45288086 393.19284668 -171.03295898 392.36542969 -171.63061523 391.51293945 C-174.99429342 386.71856928 -178.37193393 381.93421777 -181.75610352 377.15429688 C-189.38759203 366.36879544 -189.38759203 366.36879544 -192.49780273 361.83276367 C-193.15329102 360.87950195 -193.15329102 360.87950195 -193.82202148 359.90698242 C-195.75265855 356.46541199 -195.97193035 354.88196413 -195.10327148 350.92260742 C-192.3932524 345.14627192 -186.26600162 342.08811027 -181.12280273 338.70776367 C-180.0393457 337.9762207 -178.95588867 337.24467773 -177.83959961 336.4909668 C-175.17296767 334.69363338 -172.49683146 332.91265824 -169.81030273 331.14526367 C-170.37901672 327.38226711 -171.11866763 323.84806659 -172.29858398 320.23120117 C-172.59095947 319.31564453 -172.88333496 318.40008789 -173.18457031 317.45678711 C-173.49418701 316.48773438 -173.80380371 315.51868164 -174.12280273 314.52026367 C-188.18593549 269.24523807 -188.40679191 218.11508088 -170.69311523 173.71948242 C-169.59403759 170.96821471 -169.59403759 170.96821471 -169.81030273 167.14526367 C-171.12879262 165.70047919 -171.12879262 165.70047919 -172.99389648 164.59448242 C-173.6706543 164.1470166 -174.34741211 163.69955078 -175.04467773 163.23852539 C-176.13522461 162.54267334 -176.13522461 162.54267334 -177.24780273 161.83276367 C-178.71600707 160.85082082 -180.18345912 159.86775217 -181.65014648 158.88354492 C-184.04723089 157.2979312 -186.45384202 155.73454624 -188.87670898 154.18823242 C-189.67979492 153.63780273 -190.48288086 153.08737305 -191.31030273 152.52026367 C-192.34670898 151.85124023 -192.34670898 151.85124023 -193.40405273 151.16870117 C-195.79471297 147.72880671 -195.50908693 144.17463855 -194.81030273 140.14526367 C-193.63316495 137.40515628 -192.00027529 135.18728909 -190.18530273 132.83276367 C-189.16803392 131.43587706 -188.15112374 130.03872921 -187.13452148 128.64135742 C-186.59230957 127.91158691 -186.05009766 127.18181641 -185.49145508 126.42993164 C-182.58073636 122.47429618 -179.80076411 118.42756649 -176.99780273 114.39526367 C-175.81243112 112.70327823 -174.62622414 111.01187774 -173.43920898 109.32104492 C-170.9841902 105.82156347 -168.53393078 102.31882514 -166.08764648 98.81323242 C-163.17181694 94.63533317 -160.24974069 90.46190564 -157.32006836 86.29370117 C-156.37464536 84.94833856 -155.43043853 83.60211957 -154.48803711 82.25463867 C-153.39364593 80.69275797 -152.28992885 79.13742265 -151.18530273 77.58276367 C-150.61553711 76.77709961 -150.04577148 75.97143555 -149.45874023 75.14135742 C-146.81874949 71.94459138 -145.09761958 70.32372079 -140.90795898 69.74291992 C-137.16438061 70.22916024 -135.31188062 71.3965718 -132.24780273 73.58276367 C-131.22041992 74.30334961 -130.19303711 75.02393555 -129.13452148 75.76635742 C-128.59746582 76.15162598 -128.06041016 76.53689453 -127.50708008 76.93383789 C-125.13483129 78.62752112 -122.73168939 80.2751041 -120.33007812 81.92675781 C-117.81702106 83.65701962 -115.31365234 85.40099427 -112.81030273 87.14526367 C-111.75842773 86.36151367 -110.70655273 85.57776367 -109.62280273 84.77026367 C-108.88030273 84.21725586 -108.13780273 83.66424805 -107.37280273 83.09448242 C-105.60274693 81.74805278 -103.85375903 80.37363321 -102.12280273 78.97729492 C-77.25462421 59.12808472 -47.32731561 43.68255907 -15.81030273 38.14526367 C-15.83125 37.20207275 -15.85219727 36.25888184 -15.8737793 35.28710938 C-15.94211701 31.77398843 -15.99218021 28.26157782 -16.0300293 24.74804688 C-16.05009476 23.23002957 -16.07735408 21.71208909 -16.11206055 20.19433594 C-16.16080666 18.00721246 -16.18332079 15.82111415 -16.20092773 13.63354492 C-16.221875 12.319104 -16.24282227 11.00466309 -16.2644043 9.65039062 C-15.73490583 5.56328872 -14.7899826 3.9494183 -11.81030273 1.14526367 C-8.0243009 -0.28071992 -3.98914615 -0.00245905 0 0 Z M1.18969727 17.14526367 C0.85969727 27.37526367 0.52969727 37.60526367 0.18969727 48.14526367 C-2.97899182 52.37018245 -3.36571583 52.68367308 -8.12280273 53.82104492 C-9.18845459 54.08747803 -10.25410645 54.35391113 -11.35205078 54.62841797 C-12.49327393 54.90210205 -13.63449707 55.17578613 -14.81030273 55.45776367 C-46.54219888 63.59464924 -76.24409218 77.69035543 -100.23608398 100.44604492 C-103.45954464 103.49614299 -106.07914585 105.833845 -110.18530273 107.58276367 C-116.06038307 106.87370225 -120.07732845 103.53632188 -124.81030273 100.14526367 C-126.5771462 98.9028508 -128.34752587 97.66573163 -130.12036133 96.43188477 C-131.2752018 95.62520183 -132.42542069 94.8118559 -133.57055664 93.99145508 C-136.41083356 91.80827059 -136.41083356 91.80827059 -139.81030273 91.14526367 C-141.48170083 93.36141374 -143.03047686 95.58327322 -144.56030273 97.89526367 C-145.55282855 99.36726814 -146.54636633 100.83859063 -147.54077148 102.30932617 C-148.06977051 103.0946875 -148.59876953 103.88004883 -149.14379883 104.68920898 C-152.00994747 108.91327217 -154.94156037 113.09122493 -157.87280273 117.27026367 C-158.46109863 118.11008789 -159.04939453 118.94991211 -159.65551758 119.81518555 C-164.66395502 126.95620315 -169.72064377 134.0619595 -174.81030273 141.14526367 C-170.09133664 146.24964333 -164.60772997 149.89242227 -158.87280273 153.7722168 C-157.7706543 154.53115234 -157.7706543 154.53115234 -156.64624023 155.30541992 C-155.98156738 155.7553833 -155.31689453 156.20534668 -154.63208008 156.66894531 C-152.57572788 158.3353567 -151.18845263 159.88325064 -149.81030273 162.14526367 C-149.99002053 168.09454226 -151.66344813 172.74037327 -153.99780273 178.14526367 C-172.35480273 223.29587455 -171.52411833 276.6821402 -153.37280273 321.70776367 C-153.00646729 322.55814209 -152.64013184 323.40852051 -152.26269531 324.28466797 C-150.18341011 329.27625797 -149.12169188 332.75906226 -150.81030273 338.14526367 C-152.63842773 340.26245117 -152.63842773 340.26245117 -155.06030273 342.02026367 C-155.94975586 342.68155273 -156.83920898 343.3428418 -157.75561523 344.02416992 C-159.94966871 345.5476623 -162.15002173 347.05522308 -164.36499023 348.54760742 C-164.95763672 348.94931152 -165.5502832 349.35101563 -166.16088867 349.76489258 C-167.33065907 350.55128473 -168.50833977 351.32605372 -169.6940918 352.08813477 C-171.50606509 353.25591046 -171.50606509 353.25591046 -173.81030273 355.14526367 C-173.81030273 358.81152403 -172.89878633 359.80672673 -170.80249023 362.76635742 C-169.82650879 364.15576538 -169.82650879 364.15576538 -168.83081055 365.57324219 C-168.12279297 366.56638428 -167.41477539 367.55952637 -166.68530273 368.58276367 C-165.96697266 369.60233154 -165.24864258 370.62189941 -164.50854492 371.67236328 C-163.01716363 373.78864972 -161.5229828 375.90296582 -160.02612305 378.01538086 C-157.29510201 381.87299321 -154.5825524 385.74329844 -151.87329102 389.61621094 C-150.69349329 391.30265759 -149.51225326 392.98809646 -148.3293457 394.67236328 C-145.43553131 398.79615726 -142.58304968 402.93903348 -139.81030273 407.14526367 C-136.28176483 405.85592313 -133.41983488 404.33665725 -130.37670898 402.14135742 C-129.56266602 401.56579102 -128.74862305 400.99022461 -127.90991211 400.3972168 C-126.21923618 399.18810368 -124.53172184 397.97455746 -122.84741211 396.7565918 C-114.65317128 390.98499608 -114.65317128 390.98499608 -109.81030273 391.14526367 C-106.16223396 392.81684145 -103.55268931 395.19089434 -100.68530273 397.95776367 C-87.76821496 409.72496233 -73.35819579 419.24731126 -57.81030273 427.14526367 C-57.11759277 427.50313965 -56.42488281 427.86101562 -55.71118164 428.22973633 C-40.69153299 435.92566676 -24.66496142 441.65011876 -8.05053711 444.72827148 C-3.40640426 445.66678294 -2.86169422 446.07674169 0.18969727 450.14526367 C0.51969727 460.37526367 0.84969727 470.60526367 1.18969727 481.14526367 C21.97969727 481.14526367 42.76969727 481.14526367 64.18969727 481.14526367 C64.27219727 475.26713867 64.35469727 469.38901367 64.43969727 463.33276367 C64.47611328 461.50124756 64.5125293 459.66973145 64.55004883 457.78271484 C64.68950458 445.83563237 63.70244649 435.88719021 55.04907227 426.86401367 C46.68093367 419.12875951 38.19620715 417.23293543 26.93725586 416.90600586 C-16.1587892 415.53961255 -54.86974936 397.64773499 -85.81030273 368.14526367 C-86.9975293 367.03731445 -86.9975293 367.03731445 -88.20874023 365.90698242 C-118.31788269 337.01277028 -134.23123589 293.31899007 -135.16381836 252.17211914 C-135.48115204 207.46413078 -119.43820359 164.78826956 -88.23022461 132.61645508 C-86.93220247 131.27156488 -85.65893234 129.90289787 -84.38842773 128.53198242 C-73.03228372 116.58516648 -59.3980092 107.63738619 -44.81030273 100.14526367 C-43.80362549 99.61956787 -43.80362549 99.61956787 -42.77661133 99.08325195 C-22.93720474 88.82540383 0.0051345 82.07608278 22.43188477 81.94213867 C23.19912872 81.9364386 23.96637268 81.93073853 24.75686646 81.92486572 C26.37541352 81.91547642 27.99397917 81.90890611 29.61254883 81.9050293 C32.02404662 81.89542556 34.43465238 81.86438721 36.84594727 81.83276367 C77.35682865 81.55801619 118.38379434 98.20406729 147.49047852 126.37182617 C148.79075882 127.67968092 150.0854494 128.99312755 151.37329102 130.31323242 C166.73017478 145.80221842 187.4310152 157.17817066 209.18969727 160.14526367 C210.07399414 160.28834961 210.95829102 160.43143555 211.86938477 160.57885742 C217.93153162 161.13698709 221.07248575 159.98797621 225.81469727 156.14526367 C227.62639761 154.50039617 229.41828293 152.83343975 231.18969727 151.14526367 C232.91511813 149.62018195 234.64398526 148.09898513 236.37719727 146.58276367 C237.65006414 145.43918975 238.92172672 144.29426414 240.18969727 143.14526367 C238.55849518 138.00849685 235.42514695 134.10365612 232.25219727 129.83276367 C231.06972269 128.21926759 229.88876013 126.60466243 228.70922852 124.98901367 C228.11706543 124.17819336 227.52490234 123.36737305 226.91479492 122.53198242 C224.36533829 119.00474098 221.89444005 115.42632737 219.43969727 111.83276367 C218.99722656 111.18525146 218.55475586 110.53773926 218.09887695 109.87060547 C217.22755735 108.59442214 216.35661886 107.31797852 215.48608398 106.04125977 C213.33822325 102.89996288 211.17039708 99.77254149 209.00219727 96.64526367 C208.26614258 95.58307617 207.53008789 94.52088867 206.77172852 93.42651367 C206.2496582 92.67370117 205.72758789 91.92088867 205.18969727 91.14526367 C201.66115937 92.43460421 198.79922941 93.95387009 195.75610352 96.14916992 C194.94206055 96.72473633 194.12801758 97.30030273 193.28930664 97.89331055 C191.59863071 99.10242366 189.91111637 100.31596989 188.22680664 101.53393555 C180.03256581 107.30553126 180.03256581 107.30553126 175.18969727 107.14526367 C171.4857329 105.45154683 168.80524798 103.00059357 165.87719727 100.20776367 C140.33880067 76.90492405 107.47507246 59.87668241 73.4284668 53.56152344 C68.78473576 52.62412432 68.24057469 52.21310024 65.18969727 48.14526367 C64.85969727 37.91526367 64.52969727 27.68526367 64.18969727 17.14526367 C43.39969727 17.14526367 22.60969727 17.14526367 1.18969727 17.14526367 Z " fill="#000000" transform="translate(202.810302734375,6.854736328125)"/>
<path d="M0 0 C0.8167067 -0.00727615 1.63341339 -0.01455231 2.47486877 -0.02204895 C19.28539779 0.05774699 29.25488918 11.1154411 40.4375 22.25390625 C41.6247148 23.43213487 42.81199733 24.61029525 43.99934387 25.78839111 C46.47648559 28.24912448 48.94927323 30.71414476 51.41967773 33.18164062 C54.56822389 36.32479805 57.73262393 39.45146119 60.90119457 42.5744133 C63.35570066 44.99902298 65.7987252 47.43496187 68.23882484 49.87406158 C69.40000662 51.03106953 70.56526151 52.18400601 71.73482323 53.33254242 C80.49483306 61.94743004 87.77879549 70.48940276 89.01953125 83.20703125 C88.70195047 85.80559391 88.13917474 88.25468593 87.51382828 90.79616928 C83.60751225 107.10611715 82.61146492 126.41828336 91.3112011 141.4368763 C108.08049481 167.11012466 133.53315539 188.1173677 155.83848786 208.81783271 C165.74470211 218.02167768 175.46815567 227.41244952 185.1953125 236.8046875 C195.12917556 246.38745756 205.07694792 255.9518396 215.14035034 265.39871216 C216.67293831 266.84053995 218.20552104 268.28237331 219.73809814 269.72421265 C222.57173677 272.38908496 225.41528563 275.04276028 228.2651062 277.69030762 C229.52604287 278.87438571 230.78664314 280.05882219 232.04684448 281.24368286 C232.61328419 281.76386746 233.17972389 282.28405205 233.76332843 282.81999981 C237.10650259 285.98381871 239.31014326 288.92470786 241.01953125 293.20703125 C241.01953125 297.17241022 240.52799496 298.65498493 237.83203125 301.58203125 C234.33835348 303.60060063 232.98853341 304.06309054 229.01953125 303.20703125 C227.47048092 302.08284855 227.47048092 302.08284855 225.73094177 300.50709534 C225.02210279 299.86732317 224.31326382 299.227551 223.58294487 298.5683918 C222.73701838 297.78914282 221.89109188 297.00989384 221.01953125 296.20703125 C220.52702983 295.75539132 220.03452841 295.30375139 219.52710271 294.8384254 C215.14764619 290.82014033 210.79590106 286.77244854 206.44946289 282.71850586 C205.73325901 282.05096409 205.01705513 281.38342232 204.2791481 280.69565201 C190.09228968 267.46148723 176.08089922 254.04806425 162.13272953 240.5629034 C153.27358246 232.00549269 144.36602746 223.51419907 135.31518555 215.15942383 C68.21908655 153.12859599 68.21908655 153.12859599 66.80839998 122.23136538 C66.59345556 111.54813786 68.00881875 100.9928432 70.27659607 90.56983948 C71.48099589 84.24421055 69.97298257 80.59436072 66.77606201 75.05082703 C62.1882163 69.13450424 56.99849154 63.83968108 51.72265625 58.5390625 C50.72379237 57.53120685 49.72499399 56.52328628 48.72625732 55.51530457 C46.64213963 53.41479991 44.55376039 51.31863585 42.46289062 49.22485352 C39.80398127 46.56055599 37.16162805 43.88045942 34.52293777 41.1961565 C32.46893493 39.11220999 30.4035695 37.03980517 28.33504486 34.9702816 C27.35665888 33.9877315 26.38232859 33.00112324 25.4124527 32.01017189 C18.75858858 25.22326275 12.16870084 19.18298158 2.5 17.6484375 C-5.03181936 17.92540832 -12.49280431 18.49709701 -19.9921875 19.234375 C-20.95684937 19.32779175 -21.92151123 19.4212085 -22.91540527 19.51745605 C-25.27058292 19.74575293 -27.62559316 19.975643 -29.98046875 20.20703125 C-29.10176369 21.06241989 -29.10176369 21.06241989 -28.20530701 21.93508911 C-22.64150496 27.35763242 -17.09551911 32.79754108 -11.5678854 38.2569294 C-8.72660774 41.06193964 -5.8793163 43.86017516 -3.01635742 46.64306641 C-0.24481841 49.33758777 2.50839717 52.04970875 5.25065422 54.77401352 C6.29088691 55.80148149 7.33717971 56.82285746 8.39001656 57.83740616 C19.8882801 68.93450012 26.85148313 81.26764778 27.39453125 97.39453125 C27.17592481 111.13941115 22.2216016 122.77054662 13.01953125 132.89453125 C3.00820521 142.32088833 -8.57132857 145.91054775 -21.98046875 146.20703125 C-41.17646278 145.30216958 -53.31539724 135.21692484 -66.265625 122.1171875 C-67.21639047 121.16268106 -68.16760649 120.20862321 -69.11924744 119.25498962 C-71.59452421 116.77216162 -74.06372938 114.28338358 -76.53161621 111.79321289 C-79.06228098 109.24190382 -81.59878357 106.69641247 -84.13476562 104.15039062 C-89.08898426 99.17487274 -94.03679675 94.19303028 -98.98046875 89.20703125 C-99.30952462 92.53351422 -99.63368273 95.86045779 -99.95703125 99.1875 C-100.04927979 100.1194519 -100.14152832 101.05140381 -100.23657227 102.01159668 C-102.4396825 118.36359712 -102.4396825 118.36359712 -96.98046875 133.20703125 C-91.10626778 140.07975694 -84.81069029 146.55793309 -78.44921875 152.9765625 C-77.5732605 153.8605925 -76.69730225 154.7446225 -75.7947998 155.65544128 C-73.95759649 157.50636408 -72.11891509 159.35582083 -70.27880859 161.20385742 C-68.40876758 163.08548218 -66.54321865 164.97158175 -64.68212891 166.86206055 C-61.9684486 169.61846282 -59.24170929 172.36132429 -56.51171875 175.1015625 C-55.27850891 176.36103447 -55.27850891 176.36103447 -54.02038574 177.64595032 C-47.91440893 183.72934724 -41.74417943 188.95565164 -32.98046875 190.20703125 C-30.56940034 189.88058722 -30.56940034 189.88058722 -28.1026001 189.18348694 C-9.41410078 184.78333667 12.9944226 182.69369127 30.41239548 192.56284618 C57.53256762 209.94930275 79.66161644 236.77395939 101.39084578 260.20020354 C110.1847452 269.66762967 119.16059186 278.95441682 128.15147638 288.23433387 C142.09814112 302.6373109 155.94621531 317.12879165 169.64550781 331.76733398 C170.33276003 332.50044737 171.02001225 333.23356075 171.72809029 333.98888969 C173.63010318 336.0195041 175.52854592 338.05337621 177.425354 340.08885193 C177.98392884 340.68544111 178.54250369 341.2820303 179.11800504 341.89669794 C183.88954804 347.03718234 183.88954804 347.03718234 184.33203125 351.01953125 C183.92987611 355.12151372 183.1997957 356.56973878 180.01953125 359.20703125 C176.32637547 359.96534497 172.60304366 360.10689416 169.26172316 358.2081213 C167.56184801 356.72407969 166.07087259 355.1579479 164.56806946 353.4744873 C163.98186378 352.8578709 163.39565811 352.24125449 162.79168862 351.60595274 C160.83637134 349.53920758 158.91599084 347.4428965 156.9934082 345.34570312 C155.5944511 343.85576115 154.19300686 342.36815111 152.78927612 340.88270569 C149.76672962 337.6791754 146.75661634 334.46456834 143.75390053 331.2424469 C138.97373723 326.12440636 134.13384545 321.06569592 129.27812195 316.01940918 C128.45630143 315.16485217 127.63448091 314.31029515 126.78775674 313.42984247 C125.10640988 311.68183272 123.42490459 309.93397534 121.74324453 308.1862669 C110.44776589 296.44306554 99.1920343 284.66923538 88.11303711 272.72119141 C80.63212723 264.65440276 73.05456566 256.69271249 65.35825318 248.83100748 C61.29926749 244.67704322 57.30133081 240.49119978 53.41845131 236.1716156 C39.74542722 221.01173958 27.33841708 207.60107781 5.98251343 206.24975586 C-4.55916662 205.85642037 -15.10560063 206.39160835 -25.58432114 207.59105206 C-37.24805518 208.87051157 -48.18883851 206.40835936 -57.54319382 198.96326447 C-61.56528568 195.47021048 -65.280895 191.67288912 -69.0078125 187.87109375 C-70.21069676 186.66462257 -71.41470384 185.45926995 -72.61976624 184.25497437 C-75.12582531 181.74425613 -77.62158838 179.22389487 -80.10961914 176.6953125 C-83.28372019 173.4701084 -86.47735046 170.2651444 -89.67822933 167.06653786 C-92.15938942 164.58455867 -94.63263026 162.09481259 -97.10333443 159.60242844 C-98.27803392 158.41825161 -99.45449794 157.23582227 -100.63282585 156.05525589 C-110.69450053 145.9534603 -119.34582832 136.44975151 -119.33039856 121.42066956 C-119.31160141 120.62700485 -119.29280426 119.83334015 -119.2734375 119.015625 C-119.26257614 118.15883652 -119.25171478 117.30204803 -119.24052429 116.41929626 C-119.06546664 107.26184855 -118.40140202 98.14509306 -117.54614258 89.02856445 C-117.28846175 86.22041496 -117.06512065 83.4106762 -116.84179688 80.59960938 C-116.6778538 78.7927795 -116.51191569 76.98612926 -116.34375 75.1796875 C-116.28206131 74.34953629 -116.22037262 73.51938507 -116.15681458 72.66407776 C-115.7465765 68.67036647 -115.20025397 66.52964538 -112.89526367 63.14624023 C-109.24002298 60.71441372 -106.21561658 60.40947413 -101.98046875 61.20703125 C-99.53897282 62.90755406 -97.88088367 64.31263873 -95.89086914 66.43603516 C-95.33845047 66.99210449 -94.7860318 67.54817383 -94.21687317 68.12109375 C-92.40137724 69.95739467 -90.61557986 71.82002271 -88.828125 73.68359375 C-87.56273468 74.97155192 -86.29532014 76.25752418 -85.02598572 77.54159546 C-81.68952124 80.92555136 -78.37645751 84.3314633 -75.06915283 87.74389648 C-69.78565568 93.18893684 -64.4701067 98.6025525 -59.14941216 104.0112114 C-57.30402862 105.89440331 -55.47033422 107.78839828 -53.63795471 109.68423462 C-43.85774694 119.73156349 -35.06096101 127.43476234 -20.4140625 128.37109375 C-12.38954227 128.03620206 -4.6038536 124.61915868 1.23046875 119.125 C7.21853859 111.91152346 9.71182896 104.37487232 9.34765625 95.0234375 C8.40946928 86.97066599 5.65839556 81.54130903 0.11376953 75.62548828 C-0.36943693 75.10848925 -0.85264339 74.59149021 -1.35049248 74.05882454 C-6.3118593 68.78458945 -11.41791833 63.6538398 -16.55792618 58.55440903 C-18.2250317 56.90035383 -19.88874035 55.24294274 -21.55172729 53.58474731 C-25.06677684 50.0809587 -28.58583841 46.5812175 -32.10546875 43.08203125 C-36.22369687 38.98746551 -40.3402319 34.89122466 -44.4526329 30.79080582 C-46.0909086 29.15900301 -47.73216401 27.53023835 -49.37356567 25.90158081 C-50.36914425 24.90963142 -51.36458458 23.91754324 -52.35986328 22.92529297 C-53.23047394 22.05991913 -54.10108459 21.19454529 -54.99807739 20.302948 C-57.55883595 17.59554275 -57.9304639 16.64874073 -58.35546875 12.89453125 C-57.98046875 9.20703125 -57.98046875 9.20703125 -56.01782227 6.56176758 C-52.01319024 3.45713967 -48.95426886 3.21132209 -44.0078125 2.84375 C-43.13008682 2.76204056 -42.25236115 2.68033112 -41.34803772 2.59614563 C-39.4854766 2.42714577 -37.62190682 2.26896103 -35.75756836 2.12084961 C-32.97698754 1.89923509 -30.20100171 1.64530382 -27.42382812 1.38476562 C-18.2856202 0.56361441 -9.17632278 0.04917302 0 0 Z " fill="#000000" transform="translate(263.98046875,144.79296875)"/>
<path d="M0 0 C8.17509921 5.30791077 15.11807391 13.95463545 22.00341797 20.82641602 C23.41002081 22.22674455 24.81680991 23.62688601 26.22377014 25.02685547 C30.81679786 29.59897806 35.40461081 34.17631535 39.9921875 38.75390625 C41.57581474 40.33348266 43.15947502 41.91302593 44.74316788 43.49253654 C52.17596733 50.90632436 59.60638186 58.32249222 67.03385723 65.74161392 C75.60119115 74.2991513 84.17676228 82.84832305 92.75932777 91.39058357 C99.40172625 98.0028564 106.03646265 104.62275436 112.6654731 111.24844879 C116.62212526 115.20274906 120.5820232 119.15366569 124.55004501 123.09655952 C128.27704601 126.80033329 131.99447281 130.513452 135.70472527 134.23400116 C137.06783682 135.59760926 138.43437983 136.95779703 139.80457115 138.314291 C141.67392908 140.16600038 143.53054705 142.0296203 145.38449097 143.89674377 C145.92961393 144.43089749 146.4747369 144.96505121 147.03637874 145.51539141 C150.2467308 148.781152 151.98236781 151.52183135 153 156 C152.48089544 158.76682731 151.38416921 160.47883465 150 163 C146.68853925 164.65573038 143.55461675 164.73274241 140 164 C131.82867803 158.6918361 124.88436633 150.05541582 117.99658203 143.18945312 C116.58997075 141.79075539 115.18318188 140.39223622 113.77622986 138.99388123 C109.18303692 134.42673429 104.59513953 129.85428761 100.0078125 125.28125 C98.42415892 123.70296076 96.84049876 122.12467811 95.25683212 120.54640198 C88.6730046 113.98416558 82.09060335 107.42050406 75.51191902 100.85311127 C66.09772153 91.45518357 56.67511433 82.065871 47.24067223 72.68826532 C40.59654444 66.08280276 33.96199589 59.46781602 27.3345269 52.84563971 C23.3791461 48.89391308 19.4196863 44.94648546 15.44995499 41.00917053 C11.72076756 37.3100078 8.00357577 33.59920334 4.29527473 29.87910652 C2.93303893 28.51664961 1.56651681 27.15846279 0.19542885 25.80491447 C-1.67633036 23.95580515 -3.53200257 22.09189727 -5.38449097 20.22351074 C-5.92961393 19.69226986 -6.4747369 19.16102899 -7.03637874 18.6136899 C-10.55928454 15.01587281 -12.1471762 11.96238437 -13 7 C-10.52672462 0.32215648 -7.04536742 -1.45211862 0 0 Z " fill="#000000" transform="translate(324,312)"/>
<path d="M0 0 C0.66 -0.0103125 1.32 -0.020625 2 -0.03125 C5.15312765 0.80629953 6.15596991 1.77475199 8 4.5 C8.48952097 7.92968726 8.37582359 11.29469075 8.25 14.75 C8.23195313 15.68585938 8.21390625 16.62171875 8.1953125 17.5859375 C8.14825673 19.89167015 8.08253713 22.19530945 8 24.5 C8.58491211 24.47905273 9.16982422 24.45810547 9.77246094 24.43652344 C12.43146465 24.35319885 15.09019355 24.30129103 17.75 24.25 C18.67039062 24.21648437 19.59078125 24.18296875 20.5390625 24.1484375 C27.33487804 24.04994742 27.33487804 24.04994742 30.609375 26.265625 C32.05976504 28.59602697 32.54245545 29.78285134 32.5 32.5 C32.51546875 33.49 32.51546875 33.49 32.53125 34.5 C31.69370047 37.65312765 30.72524801 38.65596991 28 40.5 C24.57031274 40.98952097 21.20530925 40.87582359 17.75 40.75 C16.34621094 40.72292969 16.34621094 40.72292969 14.9140625 40.6953125 C12.60832985 40.64825673 10.30469055 40.58253713 8 40.5 C8.02094727 41.08491211 8.04189453 41.66982422 8.06347656 42.27246094 C8.14680115 44.93146465 8.19870897 47.59019355 8.25 50.25 C8.30027344 51.63058594 8.30027344 51.63058594 8.3515625 53.0390625 C8.45005258 59.83487804 8.45005258 59.83487804 6.234375 63.109375 C3.90397303 64.55976504 2.71714866 65.04245545 0 65 C-0.66 65.0103125 -1.32 65.020625 -2 65.03125 C-5.15312765 64.19370047 -6.15596991 63.22524801 -8 60.5 C-8.48952097 57.07031274 -8.37582359 53.70530925 -8.25 50.25 C-8.23195313 49.31414062 -8.21390625 48.37828125 -8.1953125 47.4140625 C-8.14825673 45.10832985 -8.08253713 42.80469055 -8 40.5 C-8.58491211 40.52094727 -9.16982422 40.54189453 -9.77246094 40.56347656 C-12.43146465 40.64680115 -15.09019355 40.69870897 -17.75 40.75 C-19.13058594 40.80027344 -19.13058594 40.80027344 -20.5390625 40.8515625 C-27.33487804 40.95005258 -27.33487804 40.95005258 -30.609375 38.734375 C-32.05976504 36.40397303 -32.54245545 35.21714866 -32.5 32.5 C-32.51546875 31.51 -32.51546875 31.51 -32.53125 30.5 C-31.69370047 27.34687235 -30.72524801 26.34403009 -28 24.5 C-24.57031274 24.01047903 -21.20530925 24.12417641 -17.75 24.25 C-16.81414062 24.26804687 -15.87828125 24.28609375 -14.9140625 24.3046875 C-12.60832985 24.35174327 -10.30469055 24.41746287 -8 24.5 C-8.02094727 23.91508789 -8.04189453 23.33017578 -8.06347656 22.72753906 C-8.14680115 20.06853535 -8.19870897 17.40980645 -8.25 14.75 C-8.28351563 13.82960938 -8.31703125 12.90921875 -8.3515625 11.9609375 C-8.45005258 5.16512196 -8.45005258 5.16512196 -6.234375 1.890625 C-3.90397303 0.44023496 -2.71714866 -0.04245545 0 0 Z " fill="#000000" transform="translate(336,439.5)"/>
<path d="M0 0 C0.66 -0.0103125 1.32 -0.020625 2 -0.03125 C5.15312765 0.80629953 6.15596991 1.77475199 8 4.5 C8.48952097 7.92968726 8.37582359 11.29469075 8.25 14.75 C8.23195313 15.68585938 8.21390625 16.62171875 8.1953125 17.5859375 C8.14825673 19.89167015 8.08253713 22.19530945 8 24.5 C8.58491211 24.47905273 9.16982422 24.45810547 9.77246094 24.43652344 C12.43146465 24.35319885 15.09019355 24.30129103 17.75 24.25 C18.67039062 24.21648437 19.59078125 24.18296875 20.5390625 24.1484375 C27.33487804 24.04994742 27.33487804 24.04994742 30.609375 26.265625 C32.05976504 28.59602697 32.54245545 29.78285134 32.5 32.5 C32.51546875 33.49 32.51546875 33.49 32.53125 34.5 C31.69370047 37.65312765 30.72524801 38.65596991 28 40.5 C24.57031274 40.98952097 21.20530925 40.87582359 17.75 40.75 C16.34621094 40.72292969 16.34621094 40.72292969 14.9140625 40.6953125 C12.60832985 40.64825673 10.30469055 40.58253713 8 40.5 C8.02094727 41.08491211 8.04189453 41.66982422 8.06347656 42.27246094 C8.14680115 44.93146465 8.19870897 47.59019355 8.25 50.25 C8.30027344 51.63058594 8.30027344 51.63058594 8.3515625 53.0390625 C8.45005258 59.83487804 8.45005258 59.83487804 6.234375 63.109375 C3.90397303 64.55976504 2.71714866 65.04245545 0 65 C-0.66 65.0103125 -1.32 65.020625 -2 65.03125 C-5.15312765 64.19370047 -6.15596991 63.22524801 -8 60.5 C-8.48952097 57.07031274 -8.37582359 53.70530925 -8.25 50.25 C-8.23195313 49.31414062 -8.21390625 48.37828125 -8.1953125 47.4140625 C-8.14825673 45.10832985 -8.08253713 42.80469055 -8 40.5 C-8.58491211 40.52094727 -9.16982422 40.54189453 -9.77246094 40.56347656 C-12.43146465 40.64680115 -15.09019355 40.69870897 -17.75 40.75 C-19.13058594 40.80027344 -19.13058594 40.80027344 -20.5390625 40.8515625 C-27.33487804 40.95005258 -27.33487804 40.95005258 -30.609375 38.734375 C-32.05976504 36.40397303 -32.54245545 35.21714866 -32.5 32.5 C-32.51546875 31.51 -32.51546875 31.51 -32.53125 30.5 C-31.69370047 27.34687235 -30.72524801 26.34403009 -28 24.5 C-24.57031274 24.01047903 -21.20530925 24.12417641 -17.75 24.25 C-16.81414062 24.26804688 -15.87828125 24.28609375 -14.9140625 24.3046875 C-12.60832985 24.35174327 -10.30469055 24.41746287 -8 24.5 C-8.02094727 23.91508789 -8.04189453 23.33017578 -8.06347656 22.72753906 C-8.14680115 20.06853535 -8.19870897 17.40980645 -8.25 14.75 C-8.28351563 13.82960937 -8.31703125 12.90921875 -8.3515625 11.9609375 C-8.45005258 5.16512196 -8.45005258 5.16512196 -6.234375 1.890625 C-3.90397303 0.44023496 -2.71714866 -0.04245545 0 0 Z " fill="#000000" transform="translate(424,219.5)"/>
</svg>
